<mxfile host="65bd71144e">
    <diagram id="9e7BRUzjvNmEs0wVggqz" name="Activity Diagram">
        <mxGraphModel dx="979" dy="662" grid="1" gridSize="10" guides="1" tooltips="1" connect="1" arrows="1" fold="1" page="1" pageScale="1" pageWidth="850" pageHeight="1100" math="0" shadow="0">
            <root>
                <mxCell id="0"/>
                <mxCell id="1" parent="0"/>
                <mxCell id="2" value="Người dùng" style="swimlane;startSize=30;" vertex="1" parent="1">
                    <mxGeometry x="110" y="50" width="370" height="920" as="geometry"/>
                </mxCell>
                <mxCell id="3" value="" style="ellipse;whiteSpace=wrap;html=1;aspect=fixed;" vertex="1" parent="2">
                    <mxGeometry x="120" y="50" width="30" height="30" as="geometry"/>
                </mxCell>
                <mxCell id="4" value="Truy cập giỏ hàng" style="rounded=1;whiteSpace=wrap;html=1;" vertex="1" parent="2">
                    <mxGeometry x="90" y="130" width="90" height="40" as="geometry"/>
                </mxCell>
                <mxCell id="5" value="Chỉnh sửa giỏ hàng" style="rounded=1;whiteSpace=wrap;html=1;" vertex="1" parent="2">
                    <mxGeometry x="85" y="230" width="90" height="40" as="geometry"/>
                </mxCell>
                <mxCell id="6" value="Áp dụng mã giảm giá?" style="rhombus;whiteSpace=wrap;html=1;" vertex="1" parent="2">
                    <mxGeometry x="40" y="370" width="180" height="80" as="geometry"/>
                </mxCell>
                <mxCell id="7" value="Nhập mã giảm giá" style="rounded=1;whiteSpace=wrap;html=1;" vertex="1" parent="2">
                    <mxGeometry x="270" y="390" width="90" height="40" as="geometry"/>
                </mxCell>
                <mxCell id="8" value="Nhấn &quot;Thanh toán&quot;" style="rounded=1;whiteSpace=wrap;html=1;" vertex="1" parent="2">
                    <mxGeometry x="85" y="510" width="90" height="50" as="geometry"/>
                </mxCell>
                <mxCell id="9" value="Xác nhận thông tin giao hàng" style="rounded=1;whiteSpace=wrap;html=1;" vertex="1" parent="2">
                    <mxGeometry x="85" y="590" width="90" height="40" as="geometry"/>
                </mxCell>
                <mxCell id="10" value="Chọn phương thức thanh toán" style="rounded=1;whiteSpace=wrap;html=1;" vertex="1" parent="2">
                    <mxGeometry x="90" y="700" width="90" height="40" as="geometry"/>
                </mxCell>
                <mxCell id="11" value="Xác nhận đơn hàng" style="rounded=1;whiteSpace=wrap;html=1;" vertex="1" parent="2">
                    <mxGeometry x="85" y="830" width="90" height="40" as="geometry"/>
                </mxCell>
                <mxCell id="53" value="Yes" style="edgeStyle=orthogonalEdgeStyle;rounded=0;html=1;jettySize=auto;orthogonalLoop=1;entryX=0.5;entryY=0;entryDx=0;entryDy=0;exitX=0.5;exitY=1;exitDx=0;exitDy=0;" edge="1" parent="2" source="22" target="11">
                    <mxGeometry relative="1" as="geometry">
                        <mxPoint x="810.090909090909" y="699.959090909091" as="sourcePoint"/>
                        <mxPoint x="135" y="770" as="targetPoint"/>
                        <Array as="points">
                            <mxPoint x="460" y="790"/>
                            <mxPoint x="130" y="790"/>
                        </Array>
                    </mxGeometry>
                </mxCell>
                <mxCell id="43" value="No" style="edgeStyle=orthogonalEdgeStyle;rounded=0;html=1;jettySize=auto;orthogonalLoop=1;entryX=0.5;entryY=0;entryDx=0;entryDy=0;" edge="1" parent="2" source="6" target="8">
                    <mxGeometry relative="1" as="geometry">
                        <mxPoint x="60" y="490" as="targetPoint"/>
                        <Array as="points">
                            <mxPoint x="130" y="500"/>
                        </Array>
                    </mxGeometry>
                </mxCell>
                <mxCell id="12" value="Hệ thống" style="swimlane;startSize=30;" vertex="1" parent="1">
                    <mxGeometry x="480" y="50" width="500" height="1330" as="geometry"/>
                </mxCell>
                <mxCell id="13" value="Kiểm tra đăng nhập?" style="rhombus;whiteSpace=wrap;html=1;" vertex="1" parent="12">
                    <mxGeometry x="20" y="110" width="130" height="80" as="geometry"/>
                </mxCell>
                <mxCell id="14" value="Yêu cầu đăng nhập" style="rounded=1;whiteSpace=wrap;html=1;arcSize=50;" vertex="1" parent="12">
                    <mxGeometry x="195" y="130" width="90" height="40" as="geometry"/>
                </mxCell>
                <mxCell id="15" value="Đăng nhập thành công?" style="rhombus;whiteSpace=wrap;html=1;" vertex="1" parent="12">
                    <mxGeometry x="155" y="300" width="80" height="80" as="geometry"/>
                </mxCell>
                <mxCell id="16" value="Thông báo lỗi" style="rounded=1;whiteSpace=wrap;html=1;" vertex="1" parent="12">
                    <mxGeometry x="310" y="320" width="90" height="40" as="geometry"/>
                </mxCell>
                <mxCell id="17" value="" style="ellipse;whiteSpace=wrap;html=1;aspect=fixed;fillColor=#000000;" vertex="1" parent="12">
                    <mxGeometry x="450" y="325" width="30" height="30" as="geometry"/>
                </mxCell>
                <mxCell id="18" value="Hợp lệ?" style="rhombus;whiteSpace=wrap;html=1;" vertex="1" parent="12">
                    <mxGeometry x="205" y="370" width="80" height="80" as="geometry"/>
                </mxCell>
                <mxCell id="19" value="Cập nhật tổng" style="rounded=1;whiteSpace=wrap;html=1;" vertex="1" parent="12">
                    <mxGeometry x="200" y="490" width="90" height="40" as="geometry"/>
                </mxCell>
                <mxCell id="21" value="Tính phí vận chuyển" style="rounded=1;whiteSpace=wrap;html=1;" vertex="1" parent="12">
                    <mxGeometry x="100" y="580" width="90" height="40" as="geometry"/>
                </mxCell>
                <mxCell id="24" value="Phương thức là COD?" style="rhombus;whiteSpace=wrap;html=1;" vertex="1" parent="12">
                    <mxGeometry x="65" y="810" width="120" height="80" as="geometry"/>
                </mxCell>
                <mxCell id="25" value="Ghi nhận đơn hàng" style="rounded=1;whiteSpace=wrap;html=1;" vertex="1" parent="12">
                    <mxGeometry x="80" y="950" width="90" height="40" as="geometry"/>
                </mxCell>
                <mxCell id="27" value="Thanh toán thành công?" style="rhombus;whiteSpace=wrap;html=1;" vertex="1" parent="12">
                    <mxGeometry x="305" y="910" width="80" height="80" as="geometry"/>
                </mxCell>
                <mxCell id="28" value="Ghi nhận đơn hàng" style="rounded=1;whiteSpace=wrap;html=1;" vertex="1" parent="12">
                    <mxGeometry x="300" y="1050" width="90" height="40" as="geometry"/>
                </mxCell>
                <mxCell id="30" value="Gửi thông báo xác nhận" style="rounded=1;whiteSpace=wrap;html=1;" vertex="1" parent="12">
                    <mxGeometry x="80" y="1050" width="90" height="40" as="geometry"/>
                </mxCell>
                <mxCell id="31" value="Cập nhật trạng thái đơn hàng" style="rounded=1;whiteSpace=wrap;html=1;" vertex="1" parent="12">
                    <mxGeometry x="80" y="1140" width="90" height="40" as="geometry"/>
                </mxCell>
                <mxCell id="32" value="" style="ellipse;whiteSpace=wrap;html=1;aspect=fixed;fillColor=#000000;" vertex="1" parent="12">
                    <mxGeometry x="110" y="1260" width="30" height="30" as="geometry"/>
                </mxCell>
                <mxCell id="23" value="Thông báo lỗi" style="rounded=1;whiteSpace=wrap;html=1;" vertex="1" parent="12">
                    <mxGeometry x="360" y="700" width="90" height="40" as="geometry"/>
                </mxCell>
                <mxCell id="22" value="Hợp lệ?" style="rhombus;whiteSpace=wrap;html=1;" vertex="1" parent="12">
                    <mxGeometry x="50" y="680" width="80" height="80" as="geometry"/>
                </mxCell>
                <mxCell id="54" value="No" style="edgeStyle=orthogonalEdgeStyle;rounded=0;html=1;jettySize=auto;orthogonalLoop=1;" edge="1" parent="12" source="22" target="23">
                    <mxGeometry relative="1" as="geometry"/>
                </mxCell>
                <mxCell id="50" style="edgeStyle=orthogonalEdgeStyle;rounded=0;html=1;jettySize=auto;orthogonalLoop=1;exitX=1;exitY=0.5;exitDx=0;exitDy=0;entryX=0;entryY=0.5;entryDx=0;entryDy=0;" edge="1" parent="12" source="9" target="21">
                    <mxGeometry relative="1" as="geometry">
                        <Array as="points">
                            <mxPoint x="-50" y="600"/>
                            <mxPoint x="-50" y="600"/>
                        </Array>
                    </mxGeometry>
                </mxCell>
                <mxCell id="26" value="Chuyển hướng cổng thanh toán" style="rounded=1;whiteSpace=wrap;html=1;" vertex="1" parent="12">
                    <mxGeometry x="300" y="830" width="90" height="40" as="geometry"/>
                </mxCell>
                <mxCell id="58" value="No" style="edgeStyle=orthogonalEdgeStyle;rounded=0;html=1;jettySize=auto;orthogonalLoop=1;" edge="1" parent="12" source="24" target="26">
                    <mxGeometry relative="1" as="geometry"/>
                </mxCell>
                <mxCell id="59" style="edgeStyle=orthogonalEdgeStyle;rounded=0;html=1;jettySize=auto;orthogonalLoop=1;" edge="1" parent="12" source="26" target="27">
                    <mxGeometry relative="1" as="geometry"/>
                </mxCell>
                <mxCell id="61" value="No" style="edgeStyle=orthogonalEdgeStyle;rounded=0;html=1;jettySize=auto;orthogonalLoop=1;entryX=0.5;entryY=1;entryDx=0;entryDy=0;" edge="1" parent="12" source="27" target="23">
                    <mxGeometry relative="1" as="geometry">
                        <mxPoint x="635" y="720" as="targetPoint"/>
                        <Array as="points">
                            <mxPoint x="405" y="950"/>
                        </Array>
                    </mxGeometry>
                </mxCell>
                <mxCell id="20" value="Thông báo lỗi" style="rounded=1;whiteSpace=wrap;html=1;" vertex="1" parent="12">
                    <mxGeometry x="280" y="540" width="90" height="40" as="geometry"/>
                </mxCell>
                <mxCell id="46" value="No" style="edgeStyle=orthogonalEdgeStyle;rounded=0;html=1;jettySize=auto;orthogonalLoop=1;" edge="1" parent="12" source="18" target="20">
                    <mxGeometry relative="1" as="geometry">
                        <Array as="points">
                            <mxPoint x="325" y="410"/>
                        </Array>
                    </mxGeometry>
                </mxCell>
                <mxCell id="33" style="edgeStyle=orthogonalEdgeStyle;rounded=0;html=1;jettySize=auto;orthogonalLoop=1;" edge="1" parent="1" source="3" target="4">
                    <mxGeometry relative="1" as="geometry"/>
                </mxCell>
                <mxCell id="34" style="edgeStyle=orthogonalEdgeStyle;rounded=0;html=1;jettySize=auto;orthogonalLoop=1;" edge="1" parent="1" source="4" target="13">
                    <mxGeometry relative="1" as="geometry"/>
                </mxCell>
                <mxCell id="35" value="No" style="edgeStyle=orthogonalEdgeStyle;rounded=0;html=1;jettySize=auto;orthogonalLoop=1;entryX=0;entryY=0.5;entryDx=0;entryDy=0;exitX=1;exitY=0.5;exitDx=0;exitDy=0;" edge="1" parent="1" source="13" target="14">
                    <mxGeometry relative="1" as="geometry"/>
                </mxCell>
                <mxCell id="36" value="Yes" style="edgeStyle=orthogonalEdgeStyle;rounded=0;html=1;jettySize=auto;orthogonalLoop=1;" edge="1" parent="1" source="13" target="5">
                    <mxGeometry relative="1" as="geometry">
                        <Array as="points">
                            <mxPoint x="565" y="300"/>
                        </Array>
                    </mxGeometry>
                </mxCell>
                <mxCell id="37" style="edgeStyle=orthogonalEdgeStyle;rounded=0;html=1;jettySize=auto;orthogonalLoop=1;entryX=0.5;entryY=0;entryDx=0;entryDy=0;" edge="1" parent="1" source="14" target="15">
                    <mxGeometry relative="1" as="geometry">
                        <Array as="points">
                            <mxPoint x="720" y="310"/>
                            <mxPoint x="675" y="310"/>
                        </Array>
                    </mxGeometry>
                </mxCell>
                <mxCell id="38" value="Yes" style="edgeStyle=orthogonalEdgeStyle;rounded=0;html=1;jettySize=auto;orthogonalLoop=1;exitX=0;exitY=0.5;exitDx=0;exitDy=0;" edge="1" parent="1" source="15" target="5">
                    <mxGeometry relative="1" as="geometry">
                        <Array as="points">
                            <mxPoint x="280" y="390"/>
                        </Array>
                    </mxGeometry>
                </mxCell>
                <mxCell id="39" value="No" style="edgeStyle=orthogonalEdgeStyle;rounded=0;html=1;jettySize=auto;orthogonalLoop=1;" edge="1" parent="1" source="15" target="16">
                    <mxGeometry relative="1" as="geometry"/>
                </mxCell>
                <mxCell id="40" style="edgeStyle=orthogonalEdgeStyle;rounded=0;html=1;jettySize=auto;orthogonalLoop=1;" edge="1" parent="1" source="16" target="17">
                    <mxGeometry relative="1" as="geometry"/>
                </mxCell>
                <mxCell id="41" style="edgeStyle=orthogonalEdgeStyle;rounded=0;html=1;jettySize=auto;orthogonalLoop=1;" edge="1" parent="1" source="5" target="6">
                    <mxGeometry relative="1" as="geometry"/>
                </mxCell>
                <mxCell id="42" value="Yes" style="edgeStyle=orthogonalEdgeStyle;rounded=0;html=1;jettySize=auto;orthogonalLoop=1;" edge="1" parent="1" source="6" target="7">
                    <mxGeometry relative="1" as="geometry"/>
                </mxCell>
                <mxCell id="44" style="edgeStyle=orthogonalEdgeStyle;rounded=0;html=1;jettySize=auto;orthogonalLoop=1;" edge="1" parent="1" source="7" target="18">
                    <mxGeometry relative="1" as="geometry"/>
                </mxCell>
                <mxCell id="45" value="Yes" style="edgeStyle=orthogonalEdgeStyle;rounded=0;html=1;jettySize=auto;orthogonalLoop=1;" edge="1" parent="1" source="18" target="19">
                    <mxGeometry relative="1" as="geometry"/>
                </mxCell>
                <mxCell id="47" style="edgeStyle=orthogonalEdgeStyle;rounded=0;html=1;jettySize=auto;orthogonalLoop=1;" edge="1" parent="1" source="19" target="8">
                    <mxGeometry relative="1" as="geometry">
                        <Array as="points">
                            <mxPoint x="480" y="570"/>
                            <mxPoint x="480" y="570"/>
                        </Array>
                    </mxGeometry>
                </mxCell>
                <mxCell id="48" style="edgeStyle=orthogonalEdgeStyle;rounded=0;html=1;jettySize=auto;orthogonalLoop=1;" edge="1" parent="1" source="20" target="8">
                    <mxGeometry relative="1" as="geometry">
                        <Array as="points">
                            <mxPoint x="520" y="600"/>
                            <mxPoint x="520" y="600"/>
                        </Array>
                    </mxGeometry>
                </mxCell>
                <mxCell id="49" style="edgeStyle=orthogonalEdgeStyle;rounded=0;html=1;jettySize=auto;orthogonalLoop=1;" edge="1" parent="1" source="8" target="9">
                    <mxGeometry relative="1" as="geometry"/>
                </mxCell>
                <mxCell id="51" style="edgeStyle=orthogonalEdgeStyle;rounded=0;html=1;jettySize=auto;orthogonalLoop=1;exitX=0.5;exitY=1;exitDx=0;exitDy=0;" edge="1" parent="1" source="21" target="10">
                    <mxGeometry relative="1" as="geometry">
                        <Array as="points">
                            <mxPoint x="625" y="710"/>
                            <mxPoint x="245" y="710"/>
                        </Array>
                    </mxGeometry>
                </mxCell>
                <mxCell id="52" style="edgeStyle=orthogonalEdgeStyle;rounded=0;html=1;jettySize=auto;orthogonalLoop=1;" edge="1" parent="1" source="10" target="22">
                    <mxGeometry relative="1" as="geometry"/>
                </mxCell>
                <mxCell id="57" value="Yes" style="edgeStyle=orthogonalEdgeStyle;rounded=0;html=1;jettySize=auto;orthogonalLoop=1;exitX=0.5;exitY=1;exitDx=0;exitDy=0;" edge="1" parent="1" source="24" target="25">
                    <mxGeometry relative="1" as="geometry"/>
                </mxCell>
                <mxCell id="60" value="Yes" style="edgeStyle=orthogonalEdgeStyle;rounded=0;html=1;jettySize=auto;orthogonalLoop=1;" edge="1" parent="1" source="27" target="28">
                    <mxGeometry relative="1" as="geometry"/>
                </mxCell>
                <mxCell id="63" style="edgeStyle=orthogonalEdgeStyle;rounded=0;html=1;jettySize=auto;orthogonalLoop=1;" edge="1" parent="1" source="25" target="30">
                    <mxGeometry relative="1" as="geometry"/>
                </mxCell>
                <mxCell id="64" style="edgeStyle=orthogonalEdgeStyle;rounded=0;html=1;jettySize=auto;orthogonalLoop=1;" edge="1" parent="1" source="28" target="30">
                    <mxGeometry relative="1" as="geometry"/>
                </mxCell>
                <mxCell id="65" style="edgeStyle=orthogonalEdgeStyle;rounded=0;html=1;jettySize=auto;orthogonalLoop=1;" edge="1" parent="1" source="30" target="31">
                    <mxGeometry relative="1" as="geometry"/>
                </mxCell>
                <mxCell id="66" style="edgeStyle=orthogonalEdgeStyle;rounded=0;html=1;jettySize=auto;orthogonalLoop=1;" edge="1" parent="1" source="31" target="32">
                    <mxGeometry relative="1" as="geometry"/>
                </mxCell>
                <mxCell id="56" style="edgeStyle=orthogonalEdgeStyle;rounded=0;html=1;jettySize=auto;orthogonalLoop=1;entryX=0;entryY=0.5;entryDx=0;entryDy=0;exitX=1;exitY=0.5;exitDx=0;exitDy=0;" edge="1" parent="1" source="11" target="24">
                    <mxGeometry relative="1" as="geometry">
                        <mxPoint x="224.90999999999997" y="920" as="sourcePoint"/>
                        <mxPoint x="780" y="830" as="targetPoint"/>
                        <Array as="points">
                            <mxPoint x="420" y="900"/>
                            <mxPoint x="420" y="900"/>
                        </Array>
                    </mxGeometry>
                </mxCell>
            </root>
        </mxGraphModel>
    </diagram>
</mxfile>